<svg xmlns="http://www.w3.org/2000/svg" width="16" height="16" viewBox="0 0 16 16"><path fill="currentColor" fill-rule="evenodd" d="M16 8c0 4.42-3.58 8-8 8s-8-3.58-8-8s3.58-8 8-8s8 3.58 8 8m-9.64 6.81v-1.49c-1.9.426-2.31-.852-2.31-.852c-.306-.828-.758-1.04-.758-1.04c-.622-.438.045-.438.045-.438c.69.047 1.05.734 1.05.734c.611 1.09 1.6.781 1.99.592c.057-.462.238-.781.43-.959c-1.52-.166-3.11-.781-3.11-3.53c0-.781.271-1.42.702-1.92c-.068-.177-.306-.911.068-1.89c0 0 .577-.189 1.88.734a6.4 6.4 0 0 1 1.71-.237c.577 0 1.17.083 1.71.237c1.3-.923 1.88-.734 1.88-.734c.374.982.136 1.72.068 1.89c.442.497.702 1.14.702 1.92c0 2.75-1.6 3.35-3.12 3.53c.25.225.501.651.501 1.33v2.09a7 7 0 0 0 5.21-6.77c0-3.87-3.13-7-7-7s-7 3.13-7 7c0 3.3 2.29 6.07 5.36 6.81z" clip-rule="evenodd"/></svg>